<svg version="1.1" viewBox="0.0 0.0 328.244094488189 319.249343832021" fill="none" stroke="none" stroke-linecap="square" stroke-miterlimit="10" xmlns:xlink="http://www.w3.org/1999/xlink" xmlns="http://www.w3.org/2000/svg"><clipPath id="p.0"><path d="m0 0l328.24408 0l0 319.24933l-328.24408 0l0 -319.24933z" clip-rule="nonzero"/></clipPath><g clip-path="url(#p.0)"><path fill="#000000" fill-opacity="0.0" d="m0 0l328.24408 0l0 319.24933l-328.24408 0z" fill-rule="evenodd"/><path fill="#000000" fill-opacity="0.0" d="m11.698163 9.729659l237.63779 0l0 237.63779l-237.63779 0z" fill-rule="evenodd"/><path stroke="#666666" stroke-width="12.0" stroke-linejoin="round" stroke-linecap="butt" d="m11.698163 9.729659l237.63779 0l0 237.63779l-237.63779 0z" fill-rule="evenodd"/><path fill="#000000" fill-opacity="0.0" d="m250.67717 67.4462l65.19948 0l0 238.31497l-238.31235 0l0 -58.454086" fill-rule="evenodd"/><path stroke="#666666" stroke-width="12.0" stroke-linejoin="round" stroke-linecap="butt" d="m250.67717 67.4462l65.19948 0l0 238.31497l-238.31235 0l0 -58.454086" fill-rule="evenodd"/><path fill="#000000" fill-opacity="0.0" d="m130.51706 67.8399l0 121.41732" fill-rule="evenodd"/><path stroke="#666666" stroke-width="12.0" stroke-linejoin="round" stroke-linecap="butt" d="m130.51706 67.8399l0 121.41732" fill-rule="evenodd"/><path fill="#000000" fill-opacity="0.0" d="m191.22572 128.54855l-121.41733 0" fill-rule="evenodd"/><path stroke="#666666" stroke-width="12.0" stroke-linejoin="round" stroke-linecap="butt" d="m191.22572 128.54855l-121.41733 0" fill-rule="evenodd"/></g></svg>