<?xml version="1.0" standalone="no"?>
<!DOCTYPE svg PUBLIC "-//W3C//DTD SVG 20010904//EN"
 "http://www.w3.org/TR/2001/REC-SVG-20010904/DTD/svg10.dtd">
<svg version="1.0" xmlns="http://www.w3.org/2000/svg"
 width="168.000000pt" height="168.000000pt" viewBox="0 0 168.000000 168.000000"
 preserveAspectRatio="xMidYMid meet">
<metadata>
Created by potrace 1.11, written by Peter Selinger 2001-2013
</metadata>
<g transform="translate(0.000000,168.000000) scale(0.100000,-0.100000)"
fill="#000000" stroke="none">
<path d="M837 1634 c-1 -1 -25 -4 -53 -7 -237 -20 -445 -228 -471 -472 -4 -33
-7 -276 -7 -540 0 -455 1 -482 19 -512 33 -56 42 -58 483 -58 221 0 402 3 402
6 0 4 28 12 61 18 34 6 63 12 65 14 2 2 7 24 10 48 7 56 12 71 21 66 5 -3 8
212 7 476 0 358 -4 496 -13 537 -42 175 -190 338 -359 395 -41 15 -159 35
-165 29z"/>
</g>
</svg>
